HIERARCHY
ROOT hip
{
  OFFSET 0 0 0
  CHANNELS 6 Xposition Yposition Zposition Zrotation Yrotation Xrotation
  JOINT abdomen
  {
    OFFSET 0 20.6881 -0.73152
    CHANNELS 3 Zrotation Xrotation Yrotation
    JOINT chest
    {
      OFFSET 0 11.7043 -0.48768
      CHANNELS 3 Zrotation Xrotation Yrotation
      JOINT neck
      {
        OFFSET 0 22.1894 -2.19456
        CHANNELS 3 Zrotation Xrotation Yrotation
        JOINT head
        {
          OFFSET -0.24384 7.07133 1.2192
          CHANNELS 3 Zrotation Xrotation Yrotation
          JOINT leftEye
          {
            OFFSET 4.14528 8.04674 8.04672
            CHANNELS 3 Zrotation Xrotation Yrotation
            End Site
            {
              OFFSET 1 0 0
            }
          }
          JOINT rightEye
          {
            OFFSET -3.6576 8.04674 8.04672
            CHANNELS 3 Zrotation Xrotation Yrotation
            End Site
            {
              OFFSET 1 0 0
            }
          }
        }
      }
      JOINT rCollar
      {
        OFFSET -2.68224 19.2634 -4.8768
        CHANNELS 3 Zrotation Xrotation Yrotation
        JOINT rShldr
        {
          OFFSET -8.77824 -1.95073 1.46304
          CHANNELS 3 Zrotation Xrotation Yrotation
          JOINT rForeArm
          {
            OFFSET -28.1742 -1.7115 0.48768
            CHANNELS 3 Zrotation Xrotation Yrotation
            JOINT rHand
            {
              OFFSET -22.5879 0.773209 7.07136
              CHANNELS 3 Zrotation Xrotation Yrotation
              JOINT rThumb1
              {
                OFFSET -1.2192 -0.487915 3.41376
                CHANNELS 3 Zrotation Xrotation Yrotation
                JOINT rThumb2
                {
                  OFFSET -3.37035 -0.52449 3.41376
                  CHANNELS 3 Zrotation Xrotation Yrotation
                  End Site
                  {
                    OFFSET -1.78271 -1.18214 1.43049
                  }
                }
              }
              JOINT rIndex1
              {
                OFFSET -7.75947 0.938293 5.60832
                CHANNELS 3 Zrotation Xrotation Yrotation
                JOINT rIndex2
                {
                  OFFSET -2.54057 -0.884171 1.56538
                  CHANNELS 3 Zrotation Xrotation Yrotation
                  End Site
                  {
                    OFFSET -1.62519 -0.234802 1.16502
                  }
                }
              }
              JOINT rMid1
              {
                OFFSET -8.24714 1.18213 3.41376
                CHANNELS 3 Zrotation Xrotation Yrotation
                JOINT rMid2
                {
                  OFFSET -3.10165 -0.590103 1.0647
                  CHANNELS 3 Zrotation Xrotation Yrotation
                  End Site
                  {
                    OFFSET -2.48547 -0.328903 0.83742
                  }
                }
              }
              JOINT rRing1
              {
                OFFSET -8.82822 0.546677 1.51678
                CHANNELS 3 Zrotation Xrotation Yrotation
                JOINT rRing2
                {
                  OFFSET -2.60934 -0.819778 -0.0198488
                  CHANNELS 3 Zrotation Xrotation Yrotation
                  End Site
                  {
                    OFFSET -2.33842 -0.294052 0.168128
                  }
                }
              }
              JOINT rPinky1
              {
                OFFSET -8.27202 -0.0477905 -0.4584
                CHANNELS 3 Zrotation Xrotation Yrotation
                JOINT rPinky2
                {
                  OFFSET -1.82734 -0.647385 -0.700984
                  CHANNELS 3 Zrotation Xrotation Yrotation
                  End Site
                  {
                    OFFSET -1.69225 -0.51767 -0.607171
                  }
                }
              }
            }
          }
        }
      }
      JOINT lCollar
      {
        OFFSET 2.68224 19.2634 -4.8768
        CHANNELS 3 Zrotation Xrotation Yrotation
        JOINT lShldr
        {
          OFFSET 8.77824 -1.95073 1.46304
          CHANNELS 3 Zrotation Xrotation Yrotation
          JOINT lForeArm
          {
            OFFSET 28.1742 -1.7115 0.48768
            CHANNELS 3 Zrotation Xrotation Yrotation
            JOINT lHand
            {
              OFFSET 22.5879 0.773209 7.07136
              CHANNELS 3 Zrotation Xrotation Yrotation
              JOINT lThumb1
              {
                OFFSET 1.2192 -0.487915 3.41376
                CHANNELS 3 Zrotation Xrotation Yrotation
                JOINT lThumb2
                {
                  OFFSET 3.37035 -0.52449 3.41376
                  CHANNELS 3 Zrotation Xrotation Yrotation
                  End Site
                  {
                    OFFSET 1.78271 -1.18214 1.43049
                  }
                }
              }
              JOINT lIndex1
              {
                OFFSET 7.75947 0.938293 5.60832
                CHANNELS 3 Zrotation Xrotation Yrotation
                JOINT lIndex2
                {
                  OFFSET 2.54057 -0.884171 1.56538
                  CHANNELS 3 Zrotation Xrotation Yrotation
                  End Site
                  {
                    OFFSET 1.62519 -0.234802 1.16502
                  }
                }
              }
              JOINT lMid1
              {
                OFFSET 8.24714 1.18213 3.41376
                CHANNELS 3 Zrotation Xrotation Yrotation
                JOINT lMid2
                {
                  OFFSET 3.10165 -0.590103 1.0647
                  CHANNELS 3 Zrotation Xrotation Yrotation
                  End Site
                  {
                    OFFSET 2.48547 -0.328903 0.83742
                  }
                }
              }
              JOINT lRing1
              {
                OFFSET 8.82822 0.546677 1.51678
                CHANNELS 3 Zrotation Xrotation Yrotation
                JOINT lRing2
                {
                  OFFSET 2.60934 -0.819778 -0.0198488
                  CHANNELS 3 Zrotation Xrotation Yrotation
                  End Site
                  {
                    OFFSET 2.33842 -0.294052 0.168128
                  }
                }
              }
              JOINT lPinky1
              {
                OFFSET 8.27202 -0.0477905 -0.4584
                CHANNELS 3 Zrotation Xrotation Yrotation
                JOINT lPinky2
                {
                  OFFSET 1.82734 -0.647385 -0.700984
                  CHANNELS 3 Zrotation Xrotation Yrotation
                  End Site
                  {
                    OFFSET 1.69225 -0.51767 -0.607171
                  }
                }
              }
            }
          }
        }
      }
    }
  }
  JOINT rButtock
  {
    OFFSET -8.77824 4.35084 1.2192
    CHANNELS 3 Zrotation Xrotation Yrotation
    JOINT rThigh
    {
      OFFSET 0 -1.70687 -2.19456
      CHANNELS 3 Zrotation Xrotation Yrotation
      JOINT rShin
      {
        OFFSET 0 -36.8199 0.73152
        CHANNELS 3 Zrotation Xrotation Yrotation
        JOINT rFoot
        {
          OFFSET 0.73152 -45.1104 -5.12064
          CHANNELS 3 Zrotation Xrotation Yrotation
          End Site
          {
            OFFSET -1.1221 -3.69964 12.103
          }
        }
      }
    }
  }
  JOINT lButtock
  {
    OFFSET 8.77824 4.35084 1.2192
    CHANNELS 3 Zrotation Xrotation Yrotation
    JOINT lThigh
    {
      OFFSET 0 -1.70687 -2.19456
      CHANNELS 3 Zrotation Xrotation Yrotation
      JOINT lShin
      {
        OFFSET 0 -36.8199 0.73152
        CHANNELS 3 Zrotation Xrotation Yrotation
        JOINT lFoot
        {
          OFFSET -0.73152 -45.1104 -5.12064
          CHANNELS 3 Zrotation Xrotation Yrotation
          End Site
          {
            OFFSET 1.1221 -3.69964 12.103
          }
        }
      }
    }
  }
}
MOTION
Frames:	4
Frame Time:	0.03333
-2.767640008143352 59.64530311586418 12.728999967905798 5.446100234985352 27.407699584960938 11.449800491333008 -8.352869033813477 10.74429988861084 -4.524670124053955 4.334790229797363 -11.914900779724121 -0.9170598983764648 -7.838639736175537 15.960701942443848 -10.547798156738281 13.274999618530273 -33.62619400024414 -17.220500946044922 -0.0 0.0 -0.0 -0.0 0.0 -0.0 1.2880399058532582e-13 -3.657829789928402e-14 8.592470268284358e-14 49.52969741821289 5.219122409820557 32.157100677490234 -24.986099243164062 -21.06599998474121 52.899696350097656 -0.20183196663856506 12.694900512695312 1.8142399787902832 6.500179838830888e-10 1.1116799925048326e-08 1.3931099607233932e-09 1.1398699761855369e-09 1.9286098051907175e-08 2.3994997100373894e-09 6.500199822845332e-10 1.1116799925048326e-08 1.3931099607233932e-09 7.730909824371338 5.474879741668701 0.4173140823841095 6.500169846823667e-10 1.1116799925048326e-08 1.3931099607233932e-09 2.9055399894714355 0.9651829600334167 0.10290199518203735 6.500259774888661e-10 1.1116799925048326e-08 1.3931099607233932e-09 10.27859878540039 0.73180091381073 0.025912316516041756 6.500119886787559e-10 1.1116799925048326e-08 1.3931099607233932e-09 2.221669912338257 -0.733487069606781 -0.208919957280159 1.2882899499792877e-13 -3.6574001748175544e-14 8.582529489615381e-14 -25.673995971679688 64.19629669189453 -64.53829956054688 27.677400588989258 -28.947402954101562 -65.57139587402344 14.204499244689941 -68.3912124633789 20.781599044799805 7.024189563331618e-10 6.308339628446902e-09 1.087019918522003e-09 1.149540018730022e-09 1.0724000354400687e-08 1.8954700031770244e-09 7.024119619281066e-10 6.308329858484285e-09 1.0870299105292247e-09 -7.730909824371338 5.474879741668701 -0.4173140823841095 7.024209547346061e-10 6.308339628446902e-09 1.0870400135587488e-09 -2.9055399894714355 0.9651829600334167 -0.10290199518203735 7.024069659244958e-10 6.308329858484285e-09 1.0870299105292247e-09 -10.27859878540039 0.73180091381073 -0.025912316516041756 7.024199555338839e-10 6.308329858484285e-09 1.0870400135587488e-09 -2.221669912338257 -0.733487069606781 0.208919957280159 -2.0321699480147914e-16 0.0 -3.8825099822884138e-19 -60.06240463256836 -53.07279968261719 -70.9368896484375 -2.0864200592041016 70.23040008544922 2.5431301593780518 -5.880738258361816 -2.704710006713867 -26.453598022460938 2.0321699480147914e-16 0.0 3.8825099822884138e-19 17.902698516845703 -11.141901016235352 30.37359619140625 0.448201984167099 58.821807861328125 -3.4077301025390625 7.878601551055908 -15.715099334716797 28.754398345947266
-2.907780001924462 60.005998575743384 13.818999975470515 5.096799850463867 25.201099395751953 11.318300247192383 -8.047429084777832 10.841599464416504 -4.6739397048950195 4.369629859924316 -11.919200897216797 -0.944040060043335 -7.584170341491699 15.617502212524414 -9.79845905303955 12.934599876403809 -33.71799850463867 -15.776799201965332 -0.0 0.0 -0.0 -0.0 0.0 -0.0 1.1490699884653122e-13 -1.2975501207344864e-13 3.798529958458363e-13 48.63529586791992 6.500891208648682 33.549896240234375 -24.489898681640625 -20.042396545410156 51.19729995727539 -0.1727069765329361 11.774699211120605 1.6786799430847168 -4.798030306396583e-10 -1.904519919548875e-08 -8.325309885925947e-10 -8.326450084972237e-10 -3.293599704079497e-08 -1.4338999987373313e-09 -4.797999775263406e-10 -1.904519919548875e-08 -8.325359845962055e-10 7.730909824371338 5.474879741668701 0.4173140823841095 -4.79801975927785e-10 -1.9045298671471755e-08 -8.325349853954833e-10 2.9055399894714355 0.9651829600334167 0.10290199518203735 -4.797939823220077e-10 -1.904519919548875e-08 -8.325319877933168e-10 10.27859878540039 0.73180091381073 0.025912316516041756 -4.798050290411027e-10 -1.904519919548875e-08 -8.325259925889839e-10 2.221669912338257 -0.733487069606781 -0.208919957280159 1.1494500013267683e-13 -1.2975799362942297e-13 3.79687980275184e-13 -22.30250358581543 62.384098052978516 -69.27529907226562 27.845800399780273 -29.777503967285156 -66.90640258789062 13.520098686218262 -67.70130157470703 20.043399810791016 2.33178987230076e-09 3.2877200961678454e-09 -4.725170255071021e-10 4.017739918538155e-09 6.083639814136177e-09 -6.858220102934354e-10 2.3317798802935386e-09 3.287709882116019e-09 -4.725079771894514e-10 -7.730909824371338 5.474879741668701 -0.4173140823841095 2.3317798802935386e-09 3.287709882116019e-09 -4.725170255071021e-10 -2.9055399894714355 0.9651829600334167 -0.10290199518203735 2.3317798802935386e-09 3.287709882116019e-09 -4.725129731930622e-10 -10.27859878540039 0.73180091381073 -0.025912316516041756 2.33178987230076e-09 3.287709882116019e-09 -4.725090319013248e-10 -2.221669912338257 -0.733487069606781 0.208919957280159 -2.0321699480147914e-16 0.0 -3.8825099822884138e-19 -57.47889709472656 -53.770606994628906 -69.11289978027344 -2.0279901027679443 69.69718933105469 2.416489839553833 -5.6950297355651855 -2.5385799407958984 -25.77969741821289 2.0321699480147914e-16 0.0 3.8825099822884138e-19 16.767898559570312 -10.545798301696777 27.8367977142334 0.5026299357414246 59.742103576660156 -3.3960695266723633 5.979799270629883 -12.50050163269043 28.02979850769043
-3.051669996343534 60.375402526814355 14.93700002337258 4.676900386810303 23.003602981567383 11.101400375366211 -7.681728839874268 11.084502220153809 -4.749999523162842 4.437870025634766 -11.927800178527832 -0.9467800259590149 -7.328969955444336 15.347498893737793 -9.045019149780273 12.65890121459961 -33.88850021362305 -14.306498527526855 -0.0 0.0 -0.0 -0.0 0.0 -0.0 4.1337000147726247e-14 -1.924189974022994e-13 5.248910030578036e-13 47.54229736328125 7.855461120605469 35.03449630737305 -23.982397079467773 -19.064401626586914 49.553897857666016 -0.1515430063009262 11.02869987487793 1.569620132446289 -7.275129942918568e-10 -2.6407498410208063e-08 -2.4500901307789036e-09 -1.2763999857057229e-09 -4.5770701007086245e-08 -4.225309879757333e-09 -7.275099411785391e-10 -2.6407498410208063e-08 -2.4500901307789036e-09 7.730909824371338 5.474879741668701 0.4173140823841095 -7.275109403792612e-10 -2.6407498410208063e-08 -2.4500901307789036e-09 2.9055399894714355 0.9651829600334167 0.10290199518203735 -7.275050006860795e-10 -2.6407498410208063e-08 -2.4500901307789036e-09 10.27859878540039 0.73180091381073 0.025912316516041756 -7.275129942918568e-10 -2.6407498410208063e-08 -2.4500699247198554e-09 2.221669912338257 -0.733487069606781 -0.208919957280159 4.136019868608565e-14 -1.9242798272780387e-13 5.246419618187836e-13 -18.117502212524414 60.15959930419922 -74.96429443359375 28.061498641967773 -30.991600036621094 -68.83390045166016 12.667900085449219 -66.77680206298828 19.11960220336914 2.6466697722327126e-09 -1.309999886345281e-09 -1.7150798559129043e-09 4.618100124531566e-09 -1.4641999834807962e-09 -2.793279829660378e-09 2.646660002270096e-09 -1.309999886345281e-09 -1.7150699749279852e-09 -7.730909824371338 5.474879741668701 -0.4173140823841095 2.646660002270096e-09 -1.3100099893748052e-09 -1.71509995094965e-09 -2.9055399894714355 0.9651829600334167 -0.10290199518203735 2.646660002270096e-09 -1.309999886345281e-09 -1.7150798559129043e-09 -10.27859878540039 0.73180091381073 -0.025912316516041756 2.6466697722327126e-09 -1.309999886345281e-09 -1.715090069964731e-09 -2.221669912338257 -0.733487069606781 0.208919957280159 -2.0321699480147914e-16 0.0 -3.8825099822884138e-19 -54.3557014465332 -54.5380973815918 -66.6431884765625 -1.9631600379943848 69.09639739990234 2.2901196479797363 -5.486389636993408 -2.4233200550079346 -24.976699829101562 2.0321699480147914e-16 0.0 3.8825099822884138e-19 15.76369857788086 -10.705500602722168 24.69809913635254 0.6499969959259033 62.177703857421875 -3.4616899490356445 3.7619102001190186 -8.849630355834961 26.307498931884766
-3.229829998015682 60.725497533101695 16.067000073316123 4.045599460601807 20.799503326416016 10.7431001663208 -7.205609321594238 11.49480152130127 -4.692970275878906 4.49901008605957 -11.952398300170898 -0.9133751392364502 -7.080000400543213 15.19310188293457 -8.315469741821289 12.415499687194824 -34.183502197265625 -12.87659740447998 -0.0 0.0 -0.0 -0.0 0.0 -0.0 -4.394799614829657e-14 -1.8059498666476992e-13 -1.3539099312162572e-13 46.238094329833984 9.19210147857666 36.60419845581055 -23.474599838256836 -18.1471004486084 47.98859786987305 -0.1449589729309082 10.78030014038086 1.5334501266479492 3.1011400114522303e-09 8.28185946488702e-08 4.857149682457873e-10 5.364429789267433e-09 1.4301301121122378e-07 8.087459590910839e-10 3.1011400114522303e-09 8.28185946488702e-08 4.857080293518834e-10 7.730909824371338 5.474879741668701 0.4173140823841095 3.1011400114522303e-09 8.28185946488702e-08 4.857149682457873e-10 2.9055399894714355 0.9651829600334167 0.10290199518203735 3.101149781414847e-09 8.28185946488702e-08 4.857149682457873e-10 10.27859878540039 0.73180091381073 0.025912316516041756 3.1011400114522303e-09 8.28185946488702e-08 4.85724016563438e-10 2.221669912338257 -0.733487069606781 -0.208919957280159 -4.399529785620304e-14 -1.8059699243878902e-13 -1.3566100012015608e-13 -13.395098686218262 57.162109375 -81.38399505615234 28.275299072265625 -32.58819580078125 -71.34950256347656 11.625101089477539 -65.50790405273438 17.97749900817871 -1.702729957031579e-09 1.0013999629521209e-09 1.2224399444094036e-11 -2.9240299070920628e-09 1.6301199279311618e-09 -5.6464596887018104e-11 -1.7027398380164982e-09 1.0013999629521209e-09 1.2231099813519997e-11 -7.730909824371338 5.474879741668701 -0.4173140823841095 -1.7027398380164982e-09 1.0013899709448992e-09 1.2214999844939456e-11 -2.9055399894714355 0.9651829600334167 -0.10290199518203735 -1.7027398380164982e-09 1.0013999629521209e-09 1.2224099336932692e-11 -10.27859878540039 0.73180091381073 -0.025912316516041756 -1.702729957031579e-09 1.0013999629521209e-09 1.2217300088268601e-11 -2.221669912338257 -0.733487069606781 0.208919957280159 -2.0321699480147914e-16 0.0 -3.8825099822884138e-19 -50.56229782104492 -55.370201110839844 -63.37529373168945 -1.8838298320770264 68.47000885009766 2.198359966278076 -5.355469226837158 -2.5160205364227295 -24.29450035095215 2.0321699480147914e-16 0.0 3.8825099822884138e-19 15.001399993896484 -11.91720199584961 21.13789939880371 0.9797160625457764 66.6802978515625 -3.6984004974365234 1.4790998697280884 -4.872569561004639 22.464202880859375
